<svg xmlns="http://www.w3.org/2000/svg" x="0" y="0" viewBox="0 0 95.151 28.405"><path d="M14.203 28.405C6.371 28.405 0 22.035 0 14.203S6.371 0 14.203 0s14.203 6.371 14.203 14.203c0 7.831-6.37 14.202-14.203 14.202zm0-25.405C8.025 3 3 8.025 3 14.203c0 6.177 5.025 11.202 11.203 11.202s11.203-5.025 11.203-11.202C25.406 8.025 20.381 3 14.203 3z" fill="#fb6664"></path><path fill="#fb6664" d="M94.036 17.148c.348.2.62.47.818.818.198.348.297.731.297 1.154 0 .422-.1.81-.303 1.161a2.265 2.265 0 01-1.985 1.134 2.246 2.246 0 01-1.975-1.13c-.2-.35-.301-.733-.301-1.151a2.267 2.267 0 011.125-1.98 2.28 2.28 0 011.164-.303c.426 0 .813.1 1.16.297zm-.14 3.754a2.038 2.038 0 001.01-1.782c0-.38-.09-.722-.265-1.03a1.96 1.96 0 00-.728-.732c-.309-.178-.653-.268-1.037-.268s-.732.091-1.044.272a2.03 2.03 0 00-1.006 1.771 2.028 2.028 0 001.003 1.772c.31.18.655.27 1.034.27s.724-.09 1.034-.273zm-.028-1.701a.86.86 0 01-.43.307l.609.93h-.35l-.563-.871a1.26 1.26 0 01-.148.006h-.673v.866h-.336v-2.612h1.009c.319 0 .57.078.756.234.185.154.278.365.278.632a.84.84 0 01-.152.508zm-.368-.067a.536.536 0 00.19-.441.52.52 0 00-.19-.43c-.128-.1-.306-.151-.534-.151h-.659v1.176h.66c.227 0 .405-.051.533-.154zM49.816 21.415H46.76v-6.468h-6.8v6.468h-3.035V5.817h3.035v6.27h6.799v-6.27h3.057v15.598zm9.548 0a6.236 6.236 0 01-.088-1.166 2.586 2.586 0 01-1.243 1.089 4.29 4.29 0 01-1.749.363c-1.276 0-2.281-.407-3.014-1.22-.734-.815-1.1-1.83-1.1-3.047V10.59h2.926v6.248c0 .645.169 1.17.506 1.573.338.403.829.605 1.474.605.63 0 1.13-.194 1.496-.583.367-.388.55-.905.55-1.551V10.59h2.926v8.866c0 .69.036 1.342.11 1.958h-2.794zm7.854 0h-2.926V5.487h2.926v15.928zm9.504-3.828l2.442.727c-.294.997-.869 1.818-1.727 2.463-.858.646-1.925.968-3.202.968-1.554 0-2.874-.524-3.96-1.573-1.085-1.048-1.628-2.452-1.628-4.213 0-1.672.529-3.039 1.585-4.102 1.056-1.064 2.302-1.595 3.74-1.595 1.672 0 2.981.498 3.927 1.495.946.998 1.418 2.37 1.418 4.114 0 .119-.003.25-.01.397a6.58 6.58 0 00-.011.351l-.022.155h-7.745a2.4 2.4 0 00.836 1.76c.529.47 1.16.704 1.893.704 1.246 0 2.067-.55 2.464-1.651zm-5.126-2.816h4.84a2.253 2.253 0 00-.649-1.518c-.404-.41-.994-.615-1.771-.615-.705 0-1.277.22-1.716.659-.44.44-.675.931-.704 1.474zm15.752-4.224v2.948a4.48 4.48 0 00-.88-.088c-.836 0-1.51.239-2.025.715-.512.477-.77 1.258-.77 2.343v4.95h-2.925V10.591h2.838v1.606c.528-1.129 1.555-1.694 3.08-1.694.161 0 .389.015.682.044z"></path></svg>