<svg xmlns="http://www.w3.org/2000/svg" width="114" height="38" focusable="false" class="chakra-icon ii-114zz8h"><g fill="none" fill-rule="evenodd"><path fill="#FF6400" d="M21.384 12.015v25.373h-7.622V12.015h7.622zM8.601 19.5v17.888H.98V19.5h7.622zM4.791 7.538a4.784 4.784 0 014.79 4.777 4.783 4.783 0 01-4.79 4.777A4.783 4.783 0 010 12.315a4.784 4.784 0 014.79-4.777zM17.572 0a4.783 4.783 0 014.79 4.777 4.783 4.783 0 01-4.79 4.777 4.783 4.783 0 01-4.79-4.777A4.784 4.784 0 0117.572 0z"></path><path fill="#fff" d="M56.758 28.52c2.474 0 4.148 1.67 4.148 4.1 0 .353-.019.63-.056 1.113h-6.436c.056 1.373.949 2.115 2.418 2.115 1.004 0 1.6-.315 1.935-.983h2.046c-.26 1.613-1.897 2.745-3.98 2.745-2.735 0-4.428-1.744-4.428-4.545 0-2.764 1.711-4.544 4.353-4.544zm24.218 0c2.865 0 4.576 2.004 4.576 4.545s-1.711 4.545-4.576 4.545c-2.865 0-4.576-2.004-4.576-4.545s1.711-4.545 4.576-4.545zm-15.532 0c2.12 0 3.423 1.02 3.423 2.69h-1.99c0-.723-.558-1.15-1.507-1.15-.725 0-1.246.371-1.246.89 0 .464.279.78 1.079 1.002l1.73.5c1.227.353 2.008 1.244 2.008 2.469 0 1.687-1.32 2.69-3.422 2.69-2.12 0-3.683-1.225-3.683-2.876h2.027c0 .742.726 1.261 1.767 1.261.763 0 1.247-.408 1.247-1.02 0-.482-.205-.78-1.135-1.02l-1.73-.464c-1.209-.334-1.897-1.206-1.897-2.43 0-1.466 1.395-2.541 3.33-2.541zm7.831-2.393v2.616h1.99v1.688h-1.99v3.562c0 1.502.466 1.688 1.265 1.688.316 0 .819-.037 1.023-.074v1.78a9.763 9.763 0 01-1.506.112c-.986 0-2.81-.13-2.81-3.042V30.43h-1.469v-1.688h1.47v-2.616h2.027zm-34.3 2.393c2.083 0 3.162 1.17 3.162 3.432v5.436H40.11V32.88c0-1.837-.484-2.634-1.898-2.634-1.32 0-2.064.872-2.064 2.393v4.749H34.12v-8.645h2.028v1.206c.539-.928 1.543-1.429 2.827-1.429zm52.493.111c.316 0 .576.02.8.075v1.855c-.317-.037-.484-.037-.8-.037-1.433 0-2.307 1.076-2.307 3.042v3.822h-2.028v-8.645h2.028v1.67c.316-1.225 1.358-1.782 2.307-1.782zm-46.317.112l2.4 5.936 2.399-5.936h2.176l-3.757 8.645h-1.637l-3.758-8.645h2.177zm-13.643 0v8.645h-2.009v-8.645h2.009zm49.468 1.577c-1.637 0-2.548 1.169-2.548 2.745 0 1.577.911 2.746 2.548 2.746s2.548-1.169 2.548-2.746c0-1.576-.911-2.745-2.548-2.745zm-24.255-.205c-1.433 0-2.288.854-2.307 2.078h4.502c-.019-1.336-.8-2.078-2.195-2.078zm-26.217-5.62c.893 0 1.507.667 1.507 1.502s-.614 1.503-1.507 1.503c-.893 0-1.507-.668-1.507-1.503 0-.835.614-1.502 1.507-1.502zm79.23-12.703c2.474 0 4.148 1.67 4.148 4.1 0 .352-.019.63-.056 1.112h-6.436c.056 1.373.949 2.115 2.418 2.115 1.005 0 1.6-.315 1.935-.983h2.046c-.26 1.614-1.897 2.746-3.98 2.746-2.735 0-4.428-1.744-4.428-4.545 0-2.764 1.712-4.545 4.353-4.545zm-39.49 0c1.153 0 2.195.52 2.734 1.391v-1.169h2.01v8.645h-2.01V19.49c-.54.872-1.73 1.392-2.79 1.392-2.79 0-4.26-2.004-4.26-4.545s1.618-4.545 4.315-4.545zm-15.83 0c2.474 0 4.148 1.67 4.148 4.1 0 .352-.018.63-.055 1.112H52.07c.056 1.373.949 2.116 2.418 2.116 1.005 0 1.6-.316 1.935-.984h2.046c-.26 1.614-1.897 2.746-3.98 2.746-2.735 0-4.428-1.744-4.428-4.545 0-2.765 1.712-4.545 4.353-4.545zm26.47 0c2.418 0 3.925 1.317 4.11 3.302h-2.027c-.223-.984-.856-1.503-2.083-1.503-1.433 0-2.288.983-2.288 2.746 0 1.762.855 2.745 2.288 2.745 1.227 0 1.86-.5 2.083-1.41h2.028c-.186 1.93-1.693 3.21-4.111 3.21-2.698 0-4.316-1.855-4.316-4.545s1.618-4.545 4.316-4.545zM46.936 9.399v2.615h1.99v1.688h-1.99v3.562c0 1.503.465 1.688 1.265 1.688.316 0 .819-.037 1.023-.074v1.781a9.763 9.763 0 01-1.506.112c-.986 0-2.81-.13-2.81-3.043v-4.026H43.44v-1.688h1.47V9.4h2.027zm42.3 0v2.615h1.99v1.688h-1.99v3.562c0 1.503.465 1.688 1.264 1.688.317 0 .82-.037 1.024-.074v1.781a9.789 9.789 0 01-1.507.112c-.986 0-2.809-.13-2.809-3.043v-4.026h-1.47v-1.688h1.47V9.4h2.027zm-50.261 2.393c2.083 0 3.162 1.168 3.162 3.432v5.435H40.11v-4.508c0-1.836-.484-2.634-1.898-2.634-1.32 0-2.064.872-2.064 2.393v4.749H34.12v-8.645h2.028v1.206c.539-.927 1.543-1.428 2.827-1.428zm-7.467.223v8.644h-2.009v-8.644h2.009zm66.619 0l2.4 5.936 2.399-5.937h2.176l-3.757 8.645h-1.637l-3.758-8.645h2.177zm-33.65-.112c.316 0 .577.018.8.074v1.855c-.316-.037-.484-.037-.8-.037-1.432 0-2.306 1.076-2.306 3.042v3.822h-2.028v-8.645h2.028v1.67c.316-1.224 1.358-1.78 2.307-1.78zm30.543.112v8.644h-2.008v-8.644h2.008zM70.486 13.59c-1.582 0-2.53 1.169-2.53 2.746 0 1.576.948 2.745 2.53 2.745 1.73 0 2.567-1.261 2.567-2.745 0-1.484-.838-2.746-2.567-2.746zm39.21-.204c-1.432 0-2.287.854-2.306 2.078h4.502c-.019-1.336-.8-2.078-2.195-2.078zm-55.32 0c-1.432 0-2.287.854-2.306 2.078h4.502c-.019-1.336-.8-2.078-2.195-2.078zm-23.871-5.62c.893 0 1.507.668 1.507 1.503 0 .835-.614 1.502-1.507 1.502-.893 0-1.507-.667-1.507-1.502s.614-1.503 1.507-1.503zm63.512 0c.893 0 1.507.668 1.507 1.503 0 .835-.614 1.502-1.507 1.502-.893 0-1.506-.667-1.506-1.502s.613-1.503 1.506-1.503z"></path></g></svg>